<defs>
<font horiz-adv-x="935" ><font-face
    font-family="cantarell-oblique"
    units-per-em="2048"
    panose-1="2 0 6 3 0 0 0 0 0 0"
    ascent="2137"
    descent="-555"
    alphabetic="0" />
<missing-glyph horiz-adv-x="748" d="M68 0V1365H612V0H68ZM136 68H544V1297H136V68Z" />
<glyph unicode=" " glyph-name="space" horiz-adv-x="560" />
<glyph unicode="!" glyph-name="exclam" horiz-adv-x="650" d="M282 200H482L425 0H225L282 200ZM647 1421H817L541 458H371L647 1421Z" />
<glyph unicode="&quot;" glyph-name="quotedbl" horiz-adv-x="795" d="M933 1511H1118L996 1083H811L933 1511ZM543 1511H728L606 1083H421L543 1511Z" />
<glyph unicode="#" glyph-name="numbersign" horiz-adv-x="1402" d="M770 1421H930L818 1030H1176L1288 1421H1448L1336 1030H1652L1609 880H1293L1192 528H1508L1465 378H1149L1032 -30H872L989 378H631L514 -30H354L471 378H155L198 528H514L615 880H297L340
1030H658L770 1421ZM775 880L674 528H1032L1133 880H775Z" />
<glyph unicode="$" glyph-name="dollar" horiz-adv-x="1200" d="M985 1511H1106L1032 1251Q1092 1251 1137 1246T1209 1234T1285 1211L1207 1086Q1084 1123 982 1123Q909 1123 853 1107T767 1066T722 1019T701 977Q698 966 698 956Q698 917 745 887T859 833T993
782T1108 706T1155 594Q1155 567 1146 534Q1133 488 1106 445T1033 356T911 278T740 232L654 -65H533L617 225Q475 225 313 300L395 424Q478 384 534 369T654 354Q712 354 758 361T847 386T919 435T962 515Q966 531 966 539Q966 569 941 592T877 631T789 663T693
698T606 742T541 804T516 892Q516 924 526 960Q537 999 563 1039T634 1120T749 1193T908 1240L985 1511Z" />
<glyph unicode="%" glyph-name="percent" horiz-adv-x="1329" d="M690 1268Q666 1268 643 1260T594 1234T546 1180T510 1094Q494 1039 494 1000Q494 944 520 922T585 900Q609 900 632 908T680 935T729 994T769 1089Q783 1137 783 1173Q783 1268 690 1268ZM718
1363Q747 1363 773 1357T826 1335T869 1286T885 1206Q885 1154 867 1092Q829 959 743 883T557 806Q483 806 437 844T391 968Q391 1023 411 1093Q436 1181 488 1244T599 1335T718 1363ZM1135 527Q1111 527 1088 519T1039 493T991 439T955 353Q940 301 940 259Q940
203 966 181T1031 159Q1055 159 1078 167T1126 194T1175 253T1215 348Q1229 396 1229 431Q1229 484 1202 505T1135 527ZM1164 623Q1193 623 1219 617T1273 594T1316 545T1332 464Q1332 412 1314 351Q1276 219 1189 143T1003 66Q929 66 884 104T838 227Q838 282
858 352Q895 482 983 552T1164 623ZM1461 1421H1631L255 0H85L1461 1421Z" />
<glyph unicode="&amp;" glyph-name="ampersand" horiz-adv-x="1589" d="M1120 1440Q1247 1440 1317 1386T1387 1242Q1387 1208 1377 1175Q1368 1143 1350 1111T1313 1054T1261 997T1205 947T1141 898T1078 855T1010 812T949 772L1191 401L1615 754L1681 660L1256
301L1453 0H1250L1114 201Q1062 161 1027 136T927 72T806 10T674 -30T523 -47Q389 -47 318 15T246 181Q246 230 261 282Q272 320 289 357T325 424T372 488T421 543T477 595T531 639T587 680T638 714T686 745T725 770Q723 774 710 792T694 816T679 840T663 865T649
890T636 917T626 945T618 975T613 1004T611 1037Q611 1078 624 1123Q664 1263 806 1351T1120 1440ZM1062 1297Q972 1297 891 1243T788 1114Q782 1092 782 1071Q782 1046 792 1020T813 976T849 924T885 871Q905 884 948 911T1007 948T1055 980T1101 1012T1135 1042T1166
1074T1186 1106T1202 1143Q1207 1159 1207 1180Q1207 1230 1169 1263T1062 1297ZM793 671Q645 575 595 535Q472 435 441 327Q432 296 432 266Q432 193 483 147T622 100Q669 100 721 115T812 148T903 198T979 249T1046 299L793 671Z" />
<glyph unicode="&apos;" glyph-name="quotesingle" horiz-adv-x="405" d="M543 1511H728L606 1083H421L543 1511Z" />
<glyph unicode="(" glyph-name="parenleft" horiz-adv-x="742" d="M1086 1479Q798 1153 648 811T497 131Q497 -99 569 -324L416 -408Q327 -133 327 151Q327 373 385 576Q425 714 495 858T650 1130T813 1356T974 1548L1086 1479Z" />
<glyph unicode=")" glyph-name="parenright" horiz-adv-x="742" d="M-13 -324Q68 -233 139 -140T294 89T436 363T534 673T574 1018Q574 1250 504 1479L656 1548Q745 1275 745 996Q745 776 687 576Q647 437 576 291T418 15T253 -216T92 -408L-13 -324Z" />
<glyph unicode="*" glyph-name="asterisk" horiz-adv-x="1196" d="M920 1421H1090L981 1102L1297 1277L1340 1129L1015 988L1258 843L1130 695L914 870L841 552H671L780 870L464 695L422 843L748 988L504 1129L631 1277L847 1102L920 1421Z" />
<glyph unicode="+" glyph-name="plus" horiz-adv-x="1400" d="M980 1233H1128L982 727H1483L1444 589H943L798 83H650L795 589H294L333 727H834L980 1233Z" />
<glyph unicode="," glyph-name="comma" horiz-adv-x="570" d="M249 170H429L159 -220H-21L249 170Z" />
<glyph unicode="-" glyph-name="hyphen" horiz-adv-x="1210" d="M384 728H1244L1204 589H344L384 728Z" />
<glyph unicode="." glyph-name="period" horiz-adv-x="570" d="M240 210H450L390 0H180L240 210Z" />
<glyph unicode="/" glyph-name="slash" horiz-adv-x="726" d="M943 1421H1113L184 -90H14L943 1421Z" />
<glyph unicode="0" glyph-name="zero" horiz-adv-x="1300" d="M1018 1287Q970 1287 918 1271T803 1214T685 1112T576 952T488 730Q442 569 442 448Q442 362 464 298T523 199T601 147T689 130Q737 130 789 147T904 207T1024 314T1135 484T1228 722Q1269 865 1269
977Q1269 1061 1247 1123T1186 1220T1106 1271T1018 1287ZM1062 1440Q1116 1440 1167 1428T1270 1385T1359 1308T1420 1188T1444 1022Q1444 890 1397 726Q1349 558 1275 425T1123 211T955 75T791 1T646 -20Q592 -20 541 -8T440 36T353 115T292 238T269 408Q269
551 320 728Q366 887 438 1014T588 1219T754 1348T917 1420T1062 1440Z" />
<glyph unicode="1" glyph-name="one" horiz-adv-x="1300" d="M1001 1421H1197L833 149H1163L1120 0H292L335 149H669L986 1257L639 1134L617 1281L1001 1421Z" />
<glyph unicode="2" glyph-name="two" horiz-adv-x="1300" d="M571 1334Q828 1431 1052 1431Q1228 1431 1326 1354T1424 1154Q1424 1110 1411 1065Q1390 992 1343 928T1233 811T1095 707T937 599T775 481T616 333T475 150H1175L1132 0H225L252 93Q326 215 417 321T593
501T766 639T929 753T1066 847T1170 939T1226 1035Q1234 1064 1234 1088Q1234 1172 1163 1228T978 1284Q835 1284 582 1202L571 1334Z" />
<glyph unicode="3" glyph-name="three" horiz-adv-x="1300" d="M588 1336Q824 1438 1019 1438Q1176 1438 1270 1367T1364 1182Q1364 1143 1352 1101Q1320 990 1236 903T1041 778Q1239 721 1239 544Q1239 491 1223 436Q1161 221 968 88T534 -45Q349 -45 185 32L273
170Q464 113 581 113Q737 113 870 193T1039 399Q1049 432 1049 467Q1049 499 1040 527T1005 585T938 636T828 670T668 684L710 830Q800 830 875 846T1000 888T1087 946T1143 1011T1172 1074Q1179 1098 1179 1123Q1179 1194 1121 1239T954 1284Q807 1284 604 1201L588
1336Z" />
<glyph unicode="4" glyph-name="four" horiz-adv-x="1300" d="M1101 1421H1339L1074 494H1322L1279 344H1031L932 0H768L867 344H219L251 456L1101 1421ZM1129 1259L458 494H910L1129 1259Z" />
<glyph unicode="5" glyph-name="five" horiz-adv-x="1300" d="M642 1421H1498L1455 1271H762L651 883Q758 896 858 896T1035 878T1158 829T1235 757T1276 672T1287 582Q1287 520 1268 454Q1257 417 1241 379T1193 293T1123 203T1025 118T897 47T734 -1T533 -20Q349
-20 177 15L253 166Q394 134 564 134Q665 134 750 154T890 205T988 278T1051 358T1085 437Q1095 475 1095 511Q1095 556 1079 594T1027 668T922 723T758 744Q653 744 441 720L642 1421Z" />
<glyph unicode="6" glyph-name="six" horiz-adv-x="1300" d="M1317 1432Q1369 1432 1439 1425L1384 1277Q1332 1283 1279 1283Q1183 1283 1099 1265T952 1219T834 1149T743 1065T673 972T621 880T583 794Q657 857 752 894T950 932Q1107 932 1196 849T1286 623Q1286
557 1265 482Q1204 271 1024 123T628 -25Q581 -25 539 -18T450 12T369 69T313 167T291 311Q291 425 334 577Q390 773 474 924T653 1169T862 1324T1086 1408T1317 1432ZM871 792Q742 792 627 703T472 476Q457 422 457 371Q457 262 519 189T687 115Q814 115 934 218T1096
464Q1111 518 1111 563Q1111 668 1044 730T871 792Z" />
<glyph unicode="7" glyph-name="seven" horiz-adv-x="1300" d="M538 1421H1576L1546 1314L506 0H308L1322 1261H493L538 1421Z" />
<glyph unicode="8" glyph-name="eight" horiz-adv-x="1300" d="M1015 1297Q912 1297 824 1237T712 1097Q705 1073 705 1049Q705 1016 722 987T760 939T819 901T880 874T942 852Q1069 919 1133 969T1218 1088Q1226 1115 1226 1144Q1226 1217 1167 1257T1015 1297ZM828
726Q678 685 574 595T440 405Q431 372 431 340Q431 249 502 190T700 130Q840 130 948 207T1089 397Q1101 439 1101 475Q1101 516 1086 552T1045 613T983 661T910 697T828 726ZM1056 1440Q1227 1440 1313 1379T1400 1203Q1400 1153 1383 1093Q1358 1006 1289 936T1096
792Q1283 695 1283 510Q1283 437 1252 361T1161 217T1025 96T850 11T649 -20Q470 -20 359 65T247 290Q247 338 262 390Q296 511 405 620T661 791Q533 867 533 1010Q533 1057 545 1098Q586 1242 727 1341T1056 1440Z" />
<glyph unicode="9" glyph-name="nine" horiz-adv-x="1300" d="M1079 1441Q1127 1441 1170 1433T1258 1403T1337 1345T1391 1248T1412 1106Q1412 988 1368 835Q1312 641 1229 491T1050 247T841 93T618 9T388 -15Q325 -15 265 -9L320 139Q364 134 426 134Q525 134
611 152T758 198T875 271T964 357T1033 457T1084 556T1126 655Q1046 589 951 557T767 524Q612 524 520 609T427 833Q427 895 446 959Q483 1089 578 1199T807 1375T1079 1441ZM1017 1301Q896 1301 774 1201T615 975Q603 932 603 892Q603 792 671 728T844 664Q971
664 1087 752T1238 963Q1250 1005 1250 1047Q1250 1151 1186 1226T1017 1301Z" />
<glyph unicode=":" glyph-name="colon" horiz-adv-x="570" d="M240 210H450L390 0H180L240 210ZM465 993H675L615 783H405L465 993Z" />
<glyph unicode=";" glyph-name="semicolon" horiz-adv-x="570" d="M249 170H429L159 -220H-21L249 170ZM465 993H675L615 783H405L465 993Z" />
<glyph unicode="&lt;" glyph-name="less" horiz-adv-x="1073" d="M1296 1128L1252 973L452 621L1055 285L1007 120L253 533L300 698L1296 1128Z" />
<glyph unicode="=" glyph-name="equal" horiz-adv-x="1400" d="M364 501H1324L1281 351H321L364 501ZM494 954H1454L1411 804H451L494 954Z" />
<glyph unicode="&gt;" glyph-name="greater" horiz-adv-x="1073" d="M423 1128L1173 698L1126 533L134 120L182 285L977 621L379 973L423 1128Z" />
<glyph unicode="?" glyph-name="question" horiz-adv-x="1046" d="M368 200H568L511 0H311L368 200ZM835 1437Q1013 1437 1110 1377T1207 1199Q1207 1151 1191 1097Q1168 1015 1128 951T1043 844T946 765T845 694T749 620T667 523T608 392H438Q463 478 504 548T592
664T692 748T794 820T889 886T967 966T1018 1069Q1027 1101 1027 1128Q1027 1160 1015 1187T976 1240T896 1279T767 1294Q710 1294 636 1281T510 1247L493 1369Q651 1437 835 1437Z" />
<glyph unicode="@" glyph-name="at" horiz-adv-x="2100" d="M1330 962Q1457 962 1559 903L1601 968H1714L1508 252Q1481 155 1481 113Q1481 20 1571 20Q1608 20 1653 46T1750 126T1853 280T1941 510Q1990 683 1990 811Q1990 1238 1455 1238Q1330 1238 1217 1210T1014
1135T846 1023T710 886T605 735T527 582T475 438Q438 306 438 195Q438 79 476 -13T583 -164T740 -254T935 -285Q1089 -285 1246 -218L1275 -337Q1074 -427 870 -427Q819 -427 768 -422T653 -400T535 -360T427 -293T335 -196T274 -64T250 108Q250 238 297 404Q326
506 366 602T467 799T600 986T771 1150T982 1281T1239 1367T1543 1399Q2176 1399 2176 896Q2176 739 2115 530Q2070 374 2005 254T1875 66T1738 -45T1613 -101T1512 -115Q1424 -115 1372 -68T1315 56Q1163 -20 1023 -20Q876 -20 791 61T705 286Q705 360 731 452Q796
678 961 820T1330 962ZM1318 840Q1175 840 1057 744T889 475Q868 402 868 343Q868 230 935 170T1113 109Q1216 109 1327 161L1509 794Q1419 840 1318 840Z" />
<glyph unicode="A" glyph-name="A" horiz-adv-x="1383" d="M1042 1421H1235L1333 0H1161L1135 413H549L287 0H130L1042 1421ZM1084 1255L643 562H1126L1084 1255Z" />
<glyph unicode="B" glyph-name="B" horiz-adv-x="1424" d="M830 1291L693 814Q712 815 759 815T832 816T907 820T985 828T1058 842T1130 864T1193 896T1250 940T1293 997T1325 1071Q1335 1104 1335 1137Q1335 1204 1283 1247T1104 1291H830ZM656 682L503 150H768Q804
150 828 150T901 156T984 171T1064 200T1141 247T1203 316T1248 413Q1260 455 1260 491Q1260 589 1178 642T950 696Q930 696 656 682ZM697 1421H1198Q1272 1421 1328 1406T1417 1366T1470 1308T1498 1243T1505 1177Q1505 1128 1491 1079Q1466 992 1383 906T1226
794Q1325 775 1381 704T1438 533Q1438 484 1423 431Q1414 400 1399 366T1356 289T1291 207T1200 130T1083 63T934 18T752 0H290L697 1421Z" />
<glyph unicode="C" glyph-name="C" horiz-adv-x="1451" d="M1396 1431Q1590 1431 1761 1355L1668 1214Q1493 1281 1348 1281Q1228 1281 1112 1234T906 1107T748 925T649 710Q623 618 623 537Q623 358 736 247T1057 136Q1211 136 1395 196L1411 70Q1176 -20 969
-20Q835 -20 733 19T568 128T474 287T442 481T473 697T560 914T702 1113T891 1278T1125 1390T1396 1431Z" />
<glyph unicode="D" glyph-name="D" horiz-adv-x="1606" d="M824 1271L503 150H710Q755 150 785 151T866 157T957 172T1049 201T1145 247T1237 316T1327 411Q1429 540 1481 720Q1511 823 1511 913Q1511 992 1488 1056T1424 1161T1336 1228T1231 1263Q1189 1271
1100 1271H824ZM1137 1421Q1263 1421 1360 1398T1521 1335T1624 1238T1681 1119T1698 984Q1698 877 1662 754Q1635 661 1597 575T1498 400T1365 241T1190 114T973 30Q913 16 842 9T726 1T598 0H290L697 1421H1137Z" />
<glyph unicode="E" glyph-name="E" horiz-adv-x="1283" d="M290 0L697 1421H1530L1487 1271H824L691 807H1299L1256 657H648L503 150H1166L1123 0H290Z" />
<glyph unicode="F" glyph-name="F" horiz-adv-x="1248" d="M824 1271L691 807H1284L1241 657H648L460 0H290L697 1421H1520L1477 1271H824Z" />
<glyph unicode="G" glyph-name="G" horiz-adv-x="1591" d="M1330 1432Q1569 1432 1752 1311L1649 1184Q1585 1224 1492 1253T1296 1282Q1191 1282 1083 1243T878 1134T705 956T591 720Q564 624 564 540Q564 354 681 243T1000 131Q1193 131 1347 247L1451 610H1047L1087
750H1656L1496 192Q1460 161 1416 132T1298 65T1124 4T916 -20Q780 -20 676 19T509 127T415 285T383 479T414 695T501 913T643 1113T831 1278T1063 1390T1330 1432Z" />
<glyph unicode="H" glyph-name="H" horiz-adv-x="1600" d="M1627 1421H1797L1390 0H1220L1409 658H649L460 0H290L697 1421H867L692 808H1452L1627 1421Z" />
<glyph unicode="I" glyph-name="I" horiz-adv-x="730" d="M727 1421H897L490 0H320L727 1421Z" />
<glyph unicode="J" glyph-name="J" horiz-adv-x="953" d="M980 1421H1150L865 426Q834 315 793 241T675 106Q522 -17 301 -17Q200 -17 112 7L180 149Q243 133 316 133Q377 133 428 145T515 175T581 221T628 272T660 327T680 376T693 417L980 1421Z" />
<glyph unicode="K" glyph-name="K" horiz-adv-x="1417" d="M697 1421H867L460 0H290L697 1421ZM1493 1421H1706L911 743L1337 0H1118L693 729L1493 1421Z" />
<glyph unicode="L" glyph-name="L" horiz-adv-x="1133" d="M697 1421H867L503 149H1141L1098 0H290L697 1421Z" />
<glyph unicode="M" glyph-name="M" horiz-adv-x="1884" d="M697 1421H937L1146 559L1856 1421H2081L1674 0H1504L1841 1177L1184 407H1014L797 1177L460 0H290L697 1421Z" />
<glyph unicode="N" glyph-name="N" horiz-adv-x="1659" d="M697 1421H912L1346 232L1686 1421H1856L1449 0H1234L802 1191L460 0H290L697 1421Z" />
<glyph unicode="O" glyph-name="O" horiz-adv-x="1686" d="M1296 1436Q1526 1436 1661 1311T1796 966Q1796 854 1759 727Q1664 397 1416 191T873 -15Q769 -15 681 14T525 101T419 250T380 458Q380 573 418 707Q513 1037 758 1236T1296 1436ZM1244 1287Q1153 1287
1059 1253T876 1154T713 978T599 728Q566 611 566 514Q566 337 664 236T928 134Q999 134 1073 155T1224 221T1366 333T1489 496T1579 709Q1612 826 1612 918Q1612 993 1592 1055T1537 1159T1455 1231T1355 1273T1244 1287Z" />
<glyph unicode="P" glyph-name="P" horiz-adv-x="1339" d="M697 1421H1166Q1203 1421 1227 1421T1295 1415T1370 1402T1438 1375T1497 1331T1536 1267T1552 1177Q1552 1114 1531 1043Q1511 974 1483 917T1422 816T1347 738T1265 680T1174 640T1081 613T983 598T887
591T793 589Q726 589 631 596L460 0H290L697 1421ZM674 746Q768 738 854 738Q903 738 936 739T1019 746T1103 762T1180 794T1251 843T1308 915T1351 1015Q1365 1063 1365 1104Q1365 1149 1346 1181T1300 1230T1230 1257T1153 1269T1072 1271H824L674 746Z" />
<glyph unicode="Q" glyph-name="Q" horiz-adv-x="1706" d="M1298 1436Q1427 1436 1524 1399T1679 1295T1765 1144T1793 958Q1793 767 1702 563T1464 220L1594 41L1474 -56L1338 121Q1127 -15 884 -15Q654 -15 517 109T379 459Q379 573 417 705Q480 925 615 1092T928
1348T1298 1436ZM1241 1287Q1153 1287 1061 1254T879 1156T714 979T598 724Q565 607 565 512Q565 331 670 233T946 134Q1109 134 1256 227L1027 525L1163 633L1382 332Q1510 469 1572 685Q1609 814 1609 920Q1609 1001 1587 1065T1528 1170T1443 1238T1344 1276T1241
1287Z" />
<glyph unicode="R" glyph-name="R" horiz-adv-x="1438" d="M1524 1031Q1504 960 1469 896T1380 774T1252 674T1085 611L1311 0H1121L906 592H631L461 0H290L697 1421H1219Q1263 1421 1297 1418T1382 1402T1465 1364T1523 1293T1548 1180Q1548 1113 1524 1031ZM674
742H919Q960 742 993 744T1073 755T1158 782T1234 829T1301 904T1348 1012Q1362 1058 1362 1100Q1362 1272 1112 1272H826L674 742Z" />
<glyph unicode="S" glyph-name="S" horiz-adv-x="1361" d="M1232 1434Q1396 1434 1569 1377L1469 1222Q1305 1274 1172 1274Q1024 1274 904 1211T755 1050Q748 1028 748 1004Q748 957 781 920T867 858T985 810T1113 759T1230 698T1317 612T1350 493Q1350 450 1335
397Q1319 340 1285 284T1192 172T1060 74T884 6T666 -20T460 4T262 76L367 241Q591 148 735 148Q887 148 1000 209T1143 372Q1151 397 1151 425Q1151 475 1118 514T1031 578T914 627T786 675T668 732T582 814T548 930Q548 974 562 1022Q611 1193 798 1313T1232
1434Z" />
<glyph unicode="T" glyph-name="T" horiz-adv-x="1210" d="M492 1421H1612L1569 1271H1094L730 0H560L924 1271H449L492 1421Z" />
<glyph unicode="U" glyph-name="U" horiz-adv-x="1582" d="M697 1421H867L603 500Q576 406 576 350Q576 288 605 240Q674 127 867 127Q1008 127 1121 188T1293 362Q1321 414 1345 500L1609 1421H1777L1511 485Q1498 439 1486 405T1447 314T1387 217T1301 128T1183
51T1027 0T825 -20Q745 -20 680 -9T570 21T493 65T441 117T411 174T397 230T393 280V300Q395 368 430 487L697 1421Z" />
<glyph unicode="V" glyph-name="V" horiz-adv-x="1401" d="M547 1421H749L800 180L1561 1421H1748L846 0H635L547 1421Z" />
<glyph unicode="W" glyph-name="W" horiz-adv-x="2165" d="M547 1421H727L742 227L1444 1421H1615L1643 227L2332 1421H2512L1667 0H1486L1453 1187L764 0H583L547 1421Z" />
<glyph unicode="X" glyph-name="X" horiz-adv-x="1368" d="M1494 1421H1690L1047 746L1338 0H1118L891 599L320 0H110L836 742L577 1421H783L992 886L1494 1421Z" />
<glyph unicode="Y" glyph-name="Y" horiz-adv-x="1263" d="M507 1421H708L902 834L1440 1421H1630L932 673L739 0H569L762 673L507 1421Z" />
<glyph unicode="Z" glyph-name="Z" horiz-adv-x="1358" d="M592 1421H1678L1647 1312L424 150H1341L1298 0H155L187 111L1392 1271H549L592 1421Z" />
<glyph unicode="[" glyph-name="bracketleft" horiz-adv-x="758" d="M683 1511H1141L1099 1362H805L339 -261H633L590 -410H132L683 1511Z" />
<glyph unicode="\" glyph-name="backslash" horiz-adv-x="726" d="M427 1421H597L660 -90H490L427 1421Z" />
<glyph unicode="]" glyph-name="bracketright" horiz-adv-x="758" d="M483 1511H941L390 -410H-68L-25 -261H269L735 1362H441L483 1511Z" />
<glyph unicode="^" glyph-name="asciicircum" horiz-adv-x="1479" d="M1167 1541L1341 1255L1223 1167L1103 1363L866 1167L800 1246L1167 1541Z" />
<glyph unicode="_" glyph-name="underscore" horiz-adv-x="1160" d="M193 150H1053L1010 0H150L193 150Z" />
<glyph unicode="`" glyph-name="grave" horiz-adv-x="1122" d="M800 1586L1215 1276L1121 1168L694 1463L800 1586Z" />
<glyph unicode="a" glyph-name="a" horiz-adv-x="1058" d="M781 982Q941 982 1011 928T1081 775Q1081 720 1060 644L875 0H759L747 90Q597 -20 442 -20Q325 -20 255 41T184 194Q184 224 193 256Q213 327 260 379T369 464T515 515T682 541T867 548L889 623Q905
677 905 716Q905 846 715 846Q619 846 444 803L447 921Q626 982 781 982ZM832 424H772Q716 424 675 422T576 411T479 386T405 339T359 264Q355 251 355 234Q355 182 402 146T524 109Q650 109 769 206L832 424Z" />
<glyph unicode="b" glyph-name="b" horiz-adv-x="1169" d="M619 1511H783L612 916Q757 983 890 983Q950 983 1003 968T1103 919T1179 825T1207 681Q1207 596 1177 493Q1109 255 943 118T574 -20Q440 -20 332 46L299 0H185L619 1511ZM795 847Q689 847 578 796L393
154Q488 109 586 109Q631 109 675 118T771 153T865 218T947 320T1009 465Q1034 550 1034 622Q1034 687 1012 733T953 803T878 837T795 847Z" />
<glyph unicode="c" glyph-name="c" horiz-adv-x="986" d="M258 459Q291 573 344 664T460 813T595 910T738 965T878 981Q1017 981 1132 922L1059 804Q962 840 858 840Q793 840 734 824T615 772T505 664T427 493Q402 406 402 341Q402 277 424 232T485 162T568 126T668
115Q758 115 860 147L867 35Q711 -20 572 -20Q506 -20 449 -6T341 40T259 132T229 276Q229 358 258 459Z" />
<glyph unicode="d" glyph-name="d" horiz-adv-x="1174" d="M260 465Q308 630 403 749T617 926T865 983Q982 983 1084 930L1250 1511H1414L981 0H867L858 62Q698 -20 550 -20Q488 -20 434 -4T333 47T259 141T231 283Q231 365 260 465ZM642 115Q750 115 866 169L1049
808Q957 854 852 854Q807 854 763 845T667 810T573 745T491 640T427 490Q403 404 403 342Q403 277 425 231T484 160T560 126T642 115Z" />
<glyph unicode="e" glyph-name="e" horiz-adv-x="1088" d="M876 982Q1143 982 1143 746Q1143 655 1094 481L1072 405H406Q396 368 396 338Q396 243 469 177T684 111Q783 111 914 146L912 35Q738 -20 585 -20Q505 -20 443 -5T342 37T276 102T240 183T229 275Q229
358 256 450Q295 585 365 690T521 857T697 950T876 982ZM801 840Q675 840 578 747T445 529H948Q973 616 973 677Q973 840 801 840Z" />
<glyph unicode="f" glyph-name="f" horiz-adv-x="799" d="M1020 1292Q962 1292 915 1275T841 1234T791 1177T761 1123T746 1079L713 963H1036L999 834H676L381 -196Q344 -325 287 -391Q229 -458 145 -494T-39 -531Q-147 -531 -261 -493L-202 -373Q-122 -396 -55
-396Q3 -396 49 -380T123 -343T171 -292T199 -243T213 -203L510 834H371L408 963H547L578 1069Q617 1206 676 1278Q735 1351 821 1390T1005 1429Q1110 1429 1227 1390L1167 1266Q1086 1292 1020 1292Z" />
<glyph unicode="g" glyph-name="g" horiz-adv-x="1162" d="M857 983Q974 983 1103 904L1140 963H1255L959 -70Q950 -100 941 -127T907 -204T853 -296T774 -385T666 -465T525 -519T346 -541Q197 -541 64 -477L144 -358Q251 -404 364 -404Q701 -404 808 -25L829
48Q684 -20 554 -20Q491 -20 435 -3T333 50T259 147T232 291Q232 372 262 479Q294 591 351 681T472 826T609 917T743 968T857 983ZM830 850Q695 850 584 753T427 497Q405 422 405 352Q405 244 463 180T639 115Q746 115 864 170L1043 796Q925 850 830 850Z" />
<glyph unicode="h" glyph-name="h" horiz-adv-x="1178" d="M846 835Q731 835 567 761L349 0H185L619 1511H783L604 888Q803 981 953 981Q1192 981 1192 766Q1192 688 1153 553L994 0H826L992 580Q1010 646 1010 689Q1010 835 846 835Z" />
<glyph unicode="i" glyph-name="i" horiz-adv-x="524" d="M572 1421H766L712 1232H518L572 1421ZM463 988H627L344 0H180L463 988Z" />
<glyph unicode="j" glyph-name="j" horiz-adv-x="520" d="M568 1421H762L708 1232H514L568 1421ZM459 988H623L301 -137Q288 -183 277 -212T237 -295T172 -386T71 -465T-75 -534L-100 -410Q82 -332 132 -154L459 988Z" />
<glyph unicode="k" glyph-name="k" horiz-adv-x="1061" d="M609 1511H773L340 0H176L609 1511ZM1069 1008H1250L699 563L987 0H790L512 546L1069 1008Z" />
<glyph unicode="l" glyph-name="l" horiz-adv-x="564" d="M633 1511H797L364 0H200L633 1511Z" />
<glyph unicode="m" glyph-name="m" horiz-adv-x="1712" d="M803 831Q720 831 557 757L340 0H176L452 963H567L578 881Q783 982 911 982Q1060 982 1112 872Q1335 981 1488 981Q1723 981 1723 775Q1723 696 1689 578L1524 0H1360L1528 587Q1545 649 1545 692Q1545
831 1392 831Q1300 831 1133 756Q1131 700 1094 569L931 0H767L936 590Q952 646 952 691Q952 831 803 831Z" />
<glyph unicode="n" glyph-name="n" horiz-adv-x="1163" d="M452 963H567L579 879Q796 983 950 983Q1180 983 1180 780Q1180 699 1144 575L979 0H815L982 583Q1001 651 1001 693Q1001 835 836 835Q722 835 558 761L340 0H176L452 963Z" />
<glyph unicode="o" glyph-name="o" horiz-adv-x="1195" d="M881 982Q1041 982 1136 900T1231 665Q1231 589 1206 501Q1137 262 963 121T578 -20Q419 -20 328 64T236 300Q236 381 262 471Q329 705 499 843T881 982ZM828 842Q752 842 675 805T529 687T430 498Q410
427 410 366Q410 256 469 188T636 120Q764 120 878 217T1036 469Q1056 538 1056 600Q1056 715 991 778T828 842Z" />
<glyph unicode="p" glyph-name="p" horiz-adv-x="1163" d="M884 982Q932 982 975 973T1060 941T1133 885T1182 798T1201 679Q1201 600 1171 492Q1125 334 1033 217T820 40T568 -20Q451 -20 349 33L187 -531H23L452 963H566L575 900Q736 982 884 982ZM789 846Q681
846 567 793L384 155Q476 109 580 109Q625 109 669 118T765 153T859 218T941 320T1003 465Q1028 550 1028 621Q1028 686 1006 732T947 802T872 836T789 846Z" />
<glyph unicode="q" glyph-name="q" horiz-adv-x="1162" d="M857 983Q974 983 1103 904L1140 963H1255L827 -531H663L829 49Q680 -20 547 -20Q486 -20 432 -4T332 46T258 141T231 284Q231 372 261 476Q297 600 364 699T514 859T685 951T857 983ZM830 850Q694 850
584 753T426 491Q403 409 403 343Q403 280 424 234T481 163T557 127T642 116Q750 116 864 169L1043 796Q925 850 830 850Z" />
<glyph unicode="r" glyph-name="r" horiz-adv-x="789" d="M577 889Q725 982 873 982Q974 982 1046 943L960 813Q891 842 810 842Q688 842 562 775L340 0H176L452 963H567L577 889Z" />
<glyph unicode="s" glyph-name="s" horiz-adv-x="1005" d="M862 982Q883 982 901 982T936 979T964 976T991 972T1014 968T1037 962T1056 956T1077 949T1098 942L1020 818Q895 854 799 854Q728 854 673 838T588 796T543 748T522 706Q519 696 519 686Q519 654 552
628T636 584T744 543T853 495T936 428T970 333Q970 306 961 275Q949 235 928 198T866 120T771 49T634 0T452 -20Q302 -20 143 55L223 177Q314 140 374 125T495 109Q735 109 778 260Q781 272 781 283Q781 322 736 350T625 398T495 444T385 515T339 626Q339 658 349
692Q359 727 381 763T445 840T543 911T681 962T862 982Z" />
<glyph unicode="t" glyph-name="t" horiz-adv-x="763" d="M696 17Q542 -20 464 -20Q259 -20 259 156Q259 215 284 302L437 834H307L344 963H474L562 1271H726L638 963H932L895 834H601L450 306Q434 247 434 214Q434 108 551 108Q579 108 706 128L696 17Z" />
<glyph unicode="u" glyph-name="u" horiz-adv-x="1164" d="M1092 963H1256L980 0H865L854 83Q639 -20 482 -20Q251 -20 251 184Q251 264 287 388L452 963H616L448 379Q430 320 430 272Q430 127 595 127Q708 127 874 202L1092 963Z" />
<glyph unicode="v" glyph-name="v" horiz-adv-x="980" d="M1190 963L571 0H405L340 963H520L539 159L1020 963H1190Z" />
<glyph unicode="w" glyph-name="w" horiz-adv-x="1654" d="M335 963H510L539 155L1019 963H1176L1202 156L1694 963H1869L1237 0H1076L1043 781L566 0H405L335 963Z" />
<glyph unicode="x" glyph-name="x" horiz-adv-x="1034" d="M340 963H529L692 581L1064 963H1239L738 472L944 0H754L599 362L250 0H75L552 473L340 963Z" />
<glyph unicode="y" glyph-name="y" horiz-adv-x="1049" d="M325 963H505L581 139L1104 963H1274L286 -531H111L444 -57L325 963Z" />
<glyph unicode="z" glyph-name="z" horiz-adv-x="1058" d="M422 963H1157L1132 876L391 129H942L905 0H146L171 87L910 834H385L422 963Z" />
<glyph unicode="{" glyph-name="braceleft" horiz-adv-x="798" d="M267 618Q316 626 360 647T437 693T500 756T549 826T588 900T617 969T640 1032T657 1080Q697 1185 753 1265T862 1389T974 1462T1072 1499T1145 1511L1138 1382Q1016 1366 918 1262Q875 1217 841
1153T787 1028T738 897T678 767T591 649T459 549Q554 474 554 333Q554 264 525 124T495 -75Q495 -125 509 -163Q527 -211 567 -243T661 -283L594 -412Q568 -410 541 -404T476 -377T408 -327T358 -240T337 -112Q337 -60 349 6Q353 27 365 82T385 182T392 265Q392
373 328 432Q288 469 228 480L267 618Z" />
<glyph unicode="|" glyph-name="bar" horiz-adv-x="884" d="M819 1601H983L436 -308H272L819 1601Z" />
<glyph unicode="}" glyph-name="braceright" horiz-adv-x="798" d="M519 1511Q547 1509 575 1502T641 1475T707 1425T755 1339T775 1212Q775 1149 761 1080Q757 1061 750 1028T738 968T728 916Q722 874 722 838Q722 739 766 685T885 618L846 480Q796 472 751 451T674
404T611 340T562 269T523 194T494 123T471 57T453 6Q414 -96 357 -174T246 -295T132 -365T36 -401T-32 -412L-25 -283Q97 -267 195 -163Q244 -111 281 -32T344 123T405 278T502 428T653 549Q559 623 559 763Q559 831 588 971T618 1172Q618 1223 604 1262Q586 1310
546 1342T452 1382L519 1511Z" />
<glyph unicode="~" glyph-name="asciitilde" horiz-adv-x="1400" d="M1266 1361Q1278 1361 1289 1364T1311 1375T1330 1390T1348 1411T1364 1434T1379 1462T1392 1489T1406 1518T1419 1545L1522 1528Q1518 1519 1505 1492T1485 1452T1466 1413T1443 1374T1419
1339T1391 1306T1360 1279T1323 1257T1283 1245T1237 1239Q1193 1239 1157 1257T1098 1303T1056 1357T1015 1402T971 1421Q959 1421 948 1418T926 1407T907 1392T889 1371T874 1349T859 1322T845 1295T832 1267T820 1241L716 1256Q720 1265 733 1292T752 1332T772
1370T794 1409T818 1444T847 1477T878 1503T914 1525T954 1537T1000 1543Q1044 1543 1080 1525T1139 1479T1181 1425T1222 1380T1266 1361Z" />
<glyph unicode="&#xa0;" glyph-name="uni00A0" horiz-adv-x="560" />
<glyph unicode="&#xa1;" glyph-name="exclamdown" horiz-adv-x="650" d="M487 863H657L292 -410H122L487 863ZM604 1321H804L746 1121H546L604 1321Z" />
<glyph unicode="&#xa2;" glyph-name="cent" horiz-adv-x="1021" d="M354 713Q416 930 558 1069T897 1236L976 1511H1097L1020 1241Q1127 1241 1245 1183L1171 1063Q1071 1101 965 1101Q800 1101 686 1010T523 747Q499 664 499 595Q499 529 522 481T585 408T672
372T772 360Q864 360 968 393L975 280Q831 229 730 229L645 -65H524L609 229Q478 245 402 320T325 532Q325 614 354 713Z" />
<glyph unicode="&#xa3;" glyph-name="sterling" horiz-adv-x="1300" d="M191 135H435L586 662H410L449 797H625L665 938Q698 1052 752 1140T869 1282T1007 1370T1151 1418T1292 1431Q1409 1431 1516 1393L1433 1271Q1351 1295 1275 1295T1135 1278T1026 1229T947
1161T888 1078T849 993T821 911L789 797H1319L1280 662H750L599 135H1187L1148 0H152L191 135Z" />
<glyph unicode="&#xa4;" glyph-name="currency" horiz-adv-x="1300" d="M515 568Q502 607 502 650Q502 788 614 915L495 1082L656 1207L775 1040Q869 1087 962 1087Q1056 1087 1121 1040L1335 1205L1424 1080L1210 915Q1221 879 1221 835Q1221 692 1111 569L1229
404L1068 279L950 444Q856 396 763 396T604 443L390 277L301 402L515 568ZM921 946Q839 946 763 886T662 741Q654 714 654 684Q654 620 695 579T803 537Q885 537 961 597T1061 741Q1070 771 1070 799Q1070 864 1029 905T921 946Z" />
<glyph unicode="&#xa5;" glyph-name="yen" horiz-adv-x="1300" d="M550 1421H735L885 818L1389 1421H1564L930 699H1212L1177 574H888L830 374H1119L1083 249H794L723 0H563L634 249H359L395 374H670L728 574H453L488 699H756L550 1421Z" />
<glyph unicode="&#xa6;" glyph-name="brokenbar" horiz-adv-x="884" d="M492 460H656L436 -308H272L492 460ZM819 1601H983L764 837H600L819 1601Z" />
<glyph unicode="&#xa7;" glyph-name="section" horiz-adv-x="1136" d="M1062 1434Q1090 1434 1114 1433T1161 1429T1198 1424T1234 1417T1262 1409T1293 1400T1321 1391L1238 1260Q1124 1299 998 1299Q890 1299 807 1259T703 1148Q699 1136 699 1121Q699 1083
734 1053T823 1002T939 957T1055 907T1144 838T1180 740Q1180 714 1171 682Q1137 560 1027 474Q1071 427 1071 365Q1071 338 1062 306Q1050 263 1027 222T960 135T857 57T711 2T518 -20H505Q320 -20 173 45L254 169Q408 109 541 109Q817 109 868 286Q872 299 872
315Q872 353 837 382T750 428T636 467T523 513T435 581T400 683Q400 713 411 752Q441 859 554 944Q508 993 508 1059Q508 1091 518 1127Q532 1177 569 1227T670 1326T835 1404T1062 1434ZM673 870Q611 829 595 771Q591 758 591 743Q591 715 609 692T662 651T731
619T818 587T902 554Q958 597 976 662Q980 677 980 692Q980 721 963 743T910 782T842 811T757 840T673 870Z" />
<glyph unicode="&#xa8;" glyph-name="dieresis" horiz-adv-x="1200" d="M690 1421H875L822 1235H637L690 1421ZM1139 1421H1324L1271 1235H1086L1139 1421Z" />
<glyph unicode="&#xa9;" glyph-name="copyright" horiz-adv-x="1760" d="M1209 1055Q1313 1055 1397 1012L1342 925Q1270 953 1192 953Q1144 953 1101 941T1013 902T932 822T874 694Q856 630 856 582Q856 492 910 454T1051 416Q1118 416 1195 440L1202 358Q1090
319 986 319Q937 319 895 329T815 364T754 433T732 540T753 673Q782 776 834 853T950 972T1078 1035T1209 1055ZM1238 1248Q1080 1248 925 1171T656 964T499 683Q477 607 477 532Q477 352 596 235T914 118Q1072 118 1227 195T1496 402T1653 683Q1675 759 1675 834Q1675
1014 1556 1131T1238 1248ZM1276 1380Q1519 1380 1666 1236T1813 870Q1813 774 1786 683Q1746 544 1654 416T1441 194T1171 43T876 -14Q633 -14 486 130T339 496Q339 592 366 683Q419 866 556 1026T886 1283T1276 1380Z" />
<glyph unicode="&#xaa;" glyph-name="ordfeminine" horiz-adv-x="759" d="M828 1102L835 1125Q843 1154 843 1175Q843 1259 734 1259Q654 1259 560 1232L562 1303Q670 1339 769 1339Q950 1339 950 1214Q950 1186 935 1131L828 760H758L752 814Q665 742 584 742Q511
742 468 773T425 863Q425 885 433 915Q465 1027 555 1064T828 1102ZM805 1019H777Q734 1019 704 1017T633 1005T567 974T531 917Q528 906 528 896Q528 865 552 844T622 822Q696 822 771 902L805 1019Z" />
<glyph unicode="&#xab;" glyph-name="guillemotleft" horiz-adv-x="936" d="M984 988H1169L791 623L960 258H775L625 623L984 988ZM613 988H798L420 623L589 258H404L254 623L613 988Z" />
<glyph unicode="&#xac;" glyph-name="logicalnot" horiz-adv-x="1400" d="M335 732H1485L1356 282H1208L1294 583H292L335 732Z" />
<glyph unicode="&#xad;" glyph-name="uni00AD" horiz-adv-x="1074" d="M429 728H1063L1023 589H389L429 728Z" />
<glyph unicode="&#xae;" glyph-name="registered" horiz-adv-x="1232" d="M1028 1320Q1051 1320 1066 1318T1105 1310T1144 1285T1165 1237Q1167 1223 1167 1215Q1167 1178 1152 1137T1098 1055T1007 998L1056 776H956L914 984H802L743 776H650L806 1320H1028ZM1064
1561Q1242 1561 1352 1455T1462 1184Q1462 1116 1441 1043Q1401 902 1296 783T1049 594T767 525Q587 525 478 632T369 904Q369 974 389 1043Q429 1184 534 1303T781 1492T1064 1561ZM1032 1450Q859 1450 704 1330T500 1043Q484 988 484 934Q484 805 570 721T798
636Q971 636 1126 756T1330 1043Q1346 1098 1346 1152Q1346 1281 1260 1365T1032 1450ZM972 1240H876L824 1061Q871 1061 887 1061T915 1060Q1042 1060 1067 1147Q1072 1167 1072 1179Q1072 1240 972 1240Z" />
<glyph unicode="&#xaf;" glyph-name="overscore" horiz-adv-x="1400" d="M755 1640H1585L1543 1491H713L755 1640Z" />
<glyph unicode="0;" glyph-name="degree" horiz-adv-x="589" d="M687 1368Q632 1368 583 1329T519 1235Q513 1216 513 1197Q513 1156 539 1129T611 1101Q665 1101 713 1141T776 1235Q782 1254 782 1273Q782 1314 757 1341T687 1368ZM712 1459Q785 1459 831
1414T877 1297Q877 1268 868 1235Q841 1141 758 1076T585 1010Q512 1010 466 1055T420 1172Q420 1202 429 1235Q456 1328 539 1393T712 1459Z" />
<glyph unicode="1;" glyph-name="plusminus" horiz-adv-x="1400" d="M302 287H1262L1223 150H263L302 287ZM1034 1421H1180L1062 1009H1469L1430 872H1023L905 461H759L877 872H470L509 1009H916L1034 1421Z" />
<glyph unicode="2;" glyph-name="uni00B2" horiz-adv-x="800" d="M807 1524Q895 1524 949 1484T1003 1375Q1003 1350 996 1325Q981 1274 943 1229T853 1145T747 1069T633 977T533 863H876L846 758H364L383 823Q432 905 498 976T624 1094T738 1178T829 1249T874
1311Q877 1322 877 1333Q877 1370 845 1395T761 1421Q703 1421 560 1370L549 1461Q692 1524 807 1524Z" />
<glyph unicode="3;" glyph-name="uni00B3" horiz-adv-x="800" d="M558 1462Q696 1521 795 1521Q885 1521 931 1481T977 1380Q977 1324 941 1269T841 1179Q916 1144 916 1059Q916 1009 889 955T814 856T694 780T542 750Q447 750 353 794L413 890Q516 859 576
859Q648 859 709 895T786 988Q791 1004 791 1022Q791 1052 773 1071T723 1099T663 1111T596 1114L626 1217Q738 1217 789 1249T853 1324Q856 1334 856 1344Q856 1374 830 1394T753 1414Q682 1414 570 1368L558 1462Z" />
<glyph unicode="4;" glyph-name="acute" horiz-adv-x="1122" d="M1232 1585L1267 1462L671 1167L640 1275L1232 1585Z" />
<glyph unicode="5;" glyph-name="uni00B5" horiz-adv-x="1174" d="M461 963H625L470 421Q447 337 447 280Q447 112 618 112Q705 112 880 187L1102 963H1266L990 0H875L865 67Q696 -27 552 -27Q429 -27 364 53L232 -410H68L461 963Z" />
<glyph unicode="6;" glyph-name="paragraph" horiz-adv-x="1338" d="M1034 1511H1581L1148 0H978L1368 1361H1128L738 0H567L764 686Q724 686 685 692T597 716T514 765T454 848T429 972Q429 1043 455 1133Q472 1194 498 1244T554 1331T621 1397T693 1444T769
1476T844 1496T916 1506T979 1510T1034 1511Z" />
<glyph unicode="7;" glyph-name="middot" horiz-adv-x="590" d="M430 838H640L580 628H370L430 838Z" />
<glyph unicode="8;" glyph-name="cedilla" horiz-adv-x="1101" d="M625 -325Q628 -313 628 -304Q628 -292 624 -283T610 -265T590 -251T560 -237T525 -225T481 -211T433 -195L553 22H680L595 -135L609 -140Q623 -144 628 -146T647 -153T669 -163T688 -176T707
-193T721 -213T732 -237T735 -267Q735 -290 728 -314Q707 -385 636 -441T471 -497Q450 -497 427 -494T377 -483T335 -472T291 -457T258 -446L310 -355Q454 -402 503 -402Q549 -402 582 -380T625 -325Z" />
<glyph unicode="9;" glyph-name="uni00B9" horiz-adv-x="543" d="M684 1511H776L561 760H448L632 1403L476 1362L478 1459L684 1511Z" />
<glyph unicode="a;" glyph-name="ordmasculine" horiz-adv-x="751" d="M779 1416Q743 1416 708 1404T635 1363T564 1280T509 1149Q485 1066 485 1003Q485 919 524 886T620 852Q655 852 689 864T763 906T837 996T897 1142Q918 1215 918 1271Q918 1352 878 1384T779
1416ZM811 1519Q851 1519 886 1510T957 1480T1015 1413T1037 1303Q1037 1231 1012 1145Q960 963 842 858T589 752Q489 752 428 804T366 972Q366 1049 394 1146Q446 1325 565 1422T811 1519Z" />
<glyph unicode="b;" glyph-name="guillemotright" horiz-adv-x="936" d="M519 988L669 623L309 258H124L503 623L333 988H519ZM890 988L1040 623L680 258H495L874 623L704 988H890Z" />
<glyph unicode="c;" glyph-name="onequarter" horiz-adv-x="1800" d="M1587 1421H1762L535 0H359L1587 1421ZM748 1421H860L630 618H497L690 1291L539 1252L543 1369L748 1421ZM1631 836H1788L1635 305H1742L1711 195H1604L1548 0H1415L1471 195H1081L1106
284L1631 836ZM1612 688L1261 305H1502L1612 688Z" />
<glyph unicode="d;" glyph-name="onehalf" horiz-adv-x="1847" d="M1587 1421H1762L535 0H359L1587 1421ZM748 1421H860L627 608H494L690 1291L539 1252L543 1369L748 1421ZM1643 842Q1740 842 1800 798T1860 679Q1860 649 1852 624Q1836 568 1794 518T1694
426T1577 342T1452 241T1342 116H1720L1687 0H1156L1177 72Q1231 162 1304 240T1442 369T1567 462T1667 540T1717 608Q1720 620 1720 632Q1720 672 1686 700T1593 728Q1528 728 1373 673L1360 773Q1522 842 1643 842Z" />
<glyph unicode="e;" glyph-name="threequarters" horiz-adv-x="1950" d="M1747 1421H1922L695 0H519L1747 1421ZM1781 836H1938L1785 305H1892L1861 195H1754L1698 0H1565L1621 195H1231L1256 284L1781 836ZM1762 688L1411 305H1652L1762 688ZM606 1385Q758
1450 868 1450Q966 1450 1016 1406T1067 1295Q1067 1233 1027 1172T918 1073Q1001 1034 1001 946Q1001 919 991 882Q955 757 841 679T588 601Q488 601 380 650L448 756Q566 721 627 721Q705 721 772 760T857 862Q863 883 863 899Q863 1002 648 1002L681 1115Q804
1115 861 1150T931 1233Q934 1244 934 1254Q934 1288 905 1310T822 1332Q743 1332 620 1281L606 1385Z" />
<glyph unicode="f;" glyph-name="questiondown" horiz-adv-x="1047" d="M637 988H807Q777 882 777 802Q777 733 799 679T852 590T915 521T968 445T990 347Q990 299 973 241Q943 136 850 46T649 -93T451 -141Q347 -141 270 -119T113 -53L200 69Q350 0 465 0Q593
0 685 66T804 225Q814 259 814 288Q814 331 792 368T738 436T674 505T620 603T597 742Q597 850 637 988ZM746 1421H946L889 1220H689L746 1421Z" />
<glyph unicode="0;" glyph-name="Agrave" horiz-adv-x="1383" d="M1042 1421H1235L1333 0H1161L1135 413H549L287 0H130L1042 1421ZM1084 1255L643 562H1126L1084 1255ZM1079 1929L1494 1619L1401 1511L974 1806L1079 1929Z" />
<glyph unicode="1;" glyph-name="Aacute" horiz-adv-x="1383" d="M1042 1421H1235L1333 0H1161L1135 413H549L287 0H130L1042 1421ZM1084 1255L643 562H1126L1084 1255ZM1487 1929L1522 1806L925 1511L894 1619L1487 1929Z" />
<glyph unicode="2;" glyph-name="Acircumflex" horiz-adv-x="1383" d="M1042 1421H1235L1333 0H1161L1135 413H549L287 0H130L1042 1421ZM1084 1255L643 562H1126L1084 1255ZM1303 1924L1477 1638L1358 1550L1239 1746L1002 1551L936 1629L1303 1924Z" />
<glyph unicode="3;" glyph-name="Atilde" horiz-adv-x="1383" d="M1547 1878L1650 1861Q1646 1852 1633 1825T1614 1785T1594 1747T1572 1708T1548 1673T1519 1640T1488 1614T1452 1592T1412 1580T1366 1574Q1322 1574 1286 1592T1227 1637T1185 1690T1144
1735T1100 1754Q1086 1754 1073 1749T1050 1738T1029 1718T1011 1695T993 1667T978 1638T962 1605T947 1574L844 1589Q848 1598 861 1625T880 1665T900 1703T922 1742T946 1777T975 1810T1006 1836T1042 1858T1082 1870T1128 1876Q1172 1876 1208 1858T1267 1813T1309
1760T1350 1715T1394 1696Q1410 1696 1423 1701T1450 1719T1473 1741T1494 1772T1512 1805T1530 1843T1547 1878ZM1084 1255L643 562H1126L1084 1255ZM1042 1421H1235L1333 0H1161L1135 413H549L287 0H130L1042 1421Z" />
<glyph unicode="4;" glyph-name="Adieresis" horiz-adv-x="1383" d="M1042 1421H1235L1333 0H1161L1135 413H549L287 0H130L1042 1421ZM1084 1255L643 562H1126L1084 1255ZM960 1897H1145L1092 1712H907L960 1897ZM1408 1897H1593L1540 1712H1355L1408 1897Z" />
<glyph unicode="5;" glyph-name="Aring" horiz-adv-x="1383" d="M1270 1873Q1359 1873 1415 1821T1472 1686Q1472 1652 1462 1618Q1440 1541 1379 1478T1238 1383L1333 0H1161L1135 413H549L287 0H130L1019 1385Q924 1435 924 1545Q924 1601 951 1659T1023
1764T1133 1842T1270 1873ZM1242 1769Q1175 1769 1118 1725T1042 1618Q1036 1597 1036 1576Q1036 1528 1067 1497T1155 1465Q1220 1465 1276 1511T1351 1618Q1357 1639 1357 1659Q1357 1706 1326 1737T1242 1769ZM1084 1255L643 562H1126L1084 1255Z" />
<glyph unicode="6;" glyph-name="AE" horiz-adv-x="1915" d="M671 562H1128L1331 1271H1148L671 562ZM1092 1421H2162L2119 1271H1501L1368 807H1931L1888 657H1325L1180 150H1798L1755 0H967L1086 414H571L292 0H130L1092 1421Z" />
<glyph unicode="7;" glyph-name="Ccedilla" horiz-adv-x="1451" d="M1007 -316Q985 -393 910 -449T741 -506Q704 -506 668 -498T518 -453L578 -349Q728 -399 779 -399Q822 -399 852 -378T891 -328Q894 -316 894 -307Q894 -299 892 -292T884 -279T872 -267T854
-257T832 -247T804 -237T772 -227T734 -215T692 -201L804 -2Q624 40 533 170T442 481Q442 607 485 740T612 997T809 1217T1075 1372T1396 1431Q1590 1431 1761 1355L1668 1214Q1493 1281 1348 1281Q1228 1281 1112 1234T906 1107T748 925T649 710Q623 618 623 537Q623
358 736 247T1057 136Q1211 136 1395 196L1411 70Q1176 -20 969 -20H941L879 -135L888 -138Q896 -140 902 -142T921 -148T942 -158T962 -171T982 -188T998 -209T1010 -236T1014 -268Q1014 -292 1007 -316Z" />
<glyph unicode="8;" glyph-name="Egrave" horiz-adv-x="1283" d="M697 1421H1530L1487 1271H824L691 807H1299L1256 657H648L503 150H1166L1123 0H290L697 1421ZM1032 1929L1447 1619L1353 1511L926 1806L1032 1929Z" />
<glyph unicode="9;" glyph-name="Eacute" horiz-adv-x="1283" d="M697 1421H1530L1487 1271H824L691 807H1299L1256 657H648L503 150H1166L1123 0H290L697 1421ZM1505 1929L1540 1806L943 1511L912 1619L1505 1929Z" />
<glyph unicode="a;" glyph-name="Ecircumflex" horiz-adv-x="1283" d="M697 1421H1530L1487 1271H824L691 807H1299L1256 657H648L503 150H1166L1123 0H290L697 1421ZM1274 1932L1448 1646L1329 1558L1210 1754L973 1559L907 1637L1274 1932Z" />
<glyph unicode="b;" glyph-name="Edieresis" horiz-adv-x="1283" d="M697 1421H1530L1487 1271H824L691 807H1299L1256 657H648L503 150H1166L1123 0H290L697 1421ZM934 1898H1119L1066 1713H881L934 1898ZM1382 1898H1567L1514 1713H1329L1382 1898Z" />
<glyph unicode="c;" glyph-name="Igrave" horiz-adv-x="730" d="M727 1421H897L490 0H320L727 1421ZM760 1927L1175 1617L1081 1511L653 1804L760 1927Z" />
<glyph unicode="d;" glyph-name="Iacute" horiz-adv-x="730" d="M727 1421H897L490 0H320L727 1421ZM1108 1930L1143 1807L546 1511L516 1620L1108 1930Z" />
<glyph unicode="e;" glyph-name="Icircumflex" horiz-adv-x="730" d="M727 1421H897L490 0H320L727 1421ZM944 1924L1118 1638L998 1550L880 1746L643 1551L577 1629L944 1924Z" />
<glyph unicode="f;" glyph-name="Idieresis" horiz-adv-x="670" d="M697 1421H867L460 0H290L697 1421ZM611 1824H796L743 1639H558L611 1824ZM1000 1824H1185L1132 1639H947L1000 1824Z" />
<glyph unicode="&#xd0;" glyph-name="Eth" horiz-adv-x="1605" d="M742 1421H1177Q1219 1421 1256 1419T1354 1408T1464 1382T1568 1333T1659 1256T1720 1144T1745 992Q1745 887 1707 754Q1664 605 1598 486T1461 289T1301 155T1137 69T973 24T828 4T706 0H335L524
658H306L349 808H567L742 1421ZM869 1271L737 808H993L950 658H694L548 150H755Q800 150 838 152T928 161T1024 179T1121 212T1218 263T1309 335T1394 433T1466 560T1526 720Q1556 823 1556 916Q1556 974 1544 1024T1503 1120T1428 1199T1310 1251T1145 1271H869Z"
/>
<glyph unicode="&#xd1;" glyph-name="Ntilde" horiz-adv-x="1659" d="M1271 1876Q1315 1876 1351 1858T1410 1813T1452 1760T1493 1715T1537 1696Q1551 1696 1564 1701T1587 1712T1608 1732T1627 1755T1645 1785T1660 1814T1676 1847T1691 1878L1794 1861Q1790
1853 1777 1825T1758 1785T1738 1747T1716 1708T1691 1673T1663 1640T1632 1614T1595 1592T1555 1580T1509 1574Q1465 1574 1429 1592T1370 1637T1328 1690T1287 1735T1243 1754Q1227 1754 1214 1749T1187 1732T1165 1709T1144 1678T1126 1645T1108 1608T1091 1572L988
1589Q990 1593 1009 1634T1034 1686T1060 1731T1091 1779T1125 1815T1167 1849T1214 1867T1271 1876ZM697 1421H912L1346 232L1686 1421H1856L1449 0H1234L802 1191L460 0H290L697 1421Z" />
<glyph unicode="&#xd2;" glyph-name="Ograve" horiz-adv-x="1686" d="M1296 1436Q1526 1436 1661 1311T1796 966Q1796 854 1759 727Q1664 397 1416 191T873 -15Q769 -15 681 14T525 101T419 250T380 458Q380 573 418 707Q513 1037 758 1236T1296 1436ZM1579 709Q1611
822 1611 917Q1611 1010 1581 1083T1498 1199T1380 1265T1241 1287Q1171 1287 1098 1267T949 1202T808 1093T687 935T599 728Q566 611 566 514Q566 337 664 236T928 134Q999 134 1073 155T1224 221T1366 333T1489 496T1579 709ZM1291 1932L1706 1622L1612 1514L1185
1809L1291 1932Z" />
<glyph unicode="&#xd3;" glyph-name="Oacute" horiz-adv-x="1686" d="M1296 1436Q1526 1436 1661 1311T1796 966Q1796 854 1759 727Q1664 397 1416 191T873 -15Q769 -15 681 14T525 101T419 250T380 458Q380 573 418 707Q513 1037 758 1236T1296 1436ZM1579 709Q1611
822 1611 917Q1611 1010 1581 1083T1498 1199T1380 1265T1241 1287Q1171 1287 1098 1267T949 1202T808 1093T687 935T599 728Q566 611 566 514Q566 337 664 236T928 134Q999 134 1073 155T1224 221T1366 333T1489 496T1579 709ZM1660 1930L1695 1807L1098 1511L1068
1620L1660 1930Z" />
<glyph unicode="&#xd4;" glyph-name="Ocircumflex" horiz-adv-x="1686" d="M1296 1436Q1526 1436 1661 1311T1796 966Q1796 854 1759 727Q1664 397 1416 191T873 -15Q769 -15 681 14T525 101T419 250T380 458Q380 573 418 707Q513 1037 758 1236T1296 1436ZM1579
709Q1611 822 1611 917Q1611 1010 1581 1083T1498 1199T1380 1265T1241 1287Q1171 1287 1098 1267T949 1202T808 1093T687 935T599 728Q566 611 566 514Q566 337 664 236T928 134Q999 134 1073 155T1224 221T1366 333T1489 496T1579 709ZM1464 1924L1638 1638L1519
1550L1400 1746L1163 1551L1097 1629L1464 1924Z" />
<glyph unicode="&#xd5;" glyph-name="Otilde" horiz-adv-x="1686" d="M1708 1878L1811 1861Q1807 1853 1794 1825T1775 1785T1755 1747T1733 1708T1708 1673T1680 1640T1649 1614T1612 1592T1572 1580T1526 1574Q1482 1574 1446 1592T1387 1637T1345 1690T1304
1735T1260 1754Q1244 1754 1231 1749T1204 1732T1182 1709T1161 1678T1143 1645T1125 1608T1108 1572L1005 1589Q1009 1598 1022 1625T1041 1665T1061 1703T1083 1742T1107 1777T1136 1810T1167 1836T1203 1858T1243 1870T1289 1876Q1333 1876 1369 1858T1428 1813T1470
1760T1511 1715T1555 1696Q1571 1696 1584 1701T1611 1719T1634 1741T1655 1772T1673 1805T1691 1843T1708 1878ZM1579 709Q1611 822 1611 918Q1611 1099 1505 1193T1241 1287Q1171 1287 1098 1267T949 1202T808 1093T687 935T599 728Q566 611 566 514Q566 337
664 236T928 134Q999 134 1073 155T1224 221T1366 333T1489 496T1579 709ZM1296 1436Q1526 1436 1661 1311T1796 966Q1796 854 1759 727Q1664 397 1416 191T873 -15Q769 -15 681 14T525 101T419 250T380 458Q380 573 418 707Q513 1037 758 1236T1296 1436Z" />
<glyph unicode="&#xd6;" glyph-name="Odieresis" horiz-adv-x="1686" d="M1296 1436Q1526 1436 1661 1311T1796 966Q1796 854 1759 727Q1664 397 1416 191T873 -15Q769 -15 681 14T525 101T419 250T380 458Q380 573 418 707Q513 1037 758 1236T1296 1436ZM1579
709Q1611 822 1611 917Q1611 1010 1581 1083T1498 1199T1380 1265T1241 1287Q1171 1287 1098 1267T949 1202T808 1093T687 935T599 728Q566 611 566 514Q566 337 664 236T928 134Q999 134 1073 155T1224 221T1366 333T1489 496T1579 709ZM1120 1898H1305L1252 1713H1067L1120
1898ZM1569 1898H1754L1701 1713H1516L1569 1898Z" />
<glyph unicode="&#xd7;" glyph-name="multiply" horiz-adv-x="1299" d="M344 194L268 299L725 654L477 1000L612 1105L869 744L1325 1099L1400 993L945 639L1192 292L1057 187L799 548L344 194Z" />
<glyph unicode="&#xd8;" glyph-name="Oslash" horiz-adv-x="1756" d="M1296 1436Q1433 1436 1547 1386T1726 1233L1960 1409L2004 1344L1761 1162Q1795 1073 1795 966Q1795 850 1759 727Q1664 397 1416 191T873 -15Q813 -15 758 -5T665 19T590 55T534 93T493 132T468
162T454 182L216 5L174 70L417 252Q380 341 380 457Q380 576 418 707Q513 1037 758 1236T1296 1436ZM1566 1114Q1520 1198 1436 1242T1244 1287Q1153 1287 1059 1253T876 1154T713 978T599 728Q566 616 566 513Q566 438 584 377L1566 1114ZM928 134Q999 134 1073
155T1224 221T1366 333T1489 496T1579 709Q1612 826 1612 919Q1612 981 1597 1038L615 302Q661 220 742 177T928 134Z" />
<glyph unicode="&#xd9;" glyph-name="Ugrave" horiz-adv-x="1580" d="M697 1421H867L603 500Q577 405 577 348Q577 127 866 127Q973 127 1056 156T1195 240T1285 357T1343 500L1607 1421H1777L1508 483Q1498 447 1490 423T1465 356T1429 282T1379 209T1312 137T1226
76T1116 25T981 -7T817 -20Q392 -20 392 280Q392 358 428 483L697 1421ZM1177 1927L1592 1617L1498 1511L1070 1804L1177 1927Z" />
<glyph unicode="&#xda;" glyph-name="Uacute" horiz-adv-x="1580" d="M697 1421H867L603 500Q577 405 577 348Q577 127 866 127Q973 127 1056 156T1195 240T1285 357T1343 500L1607 1421H1777L1508 483Q1498 447 1490 423T1465 356T1429 282T1379 209T1312 137T1226
76T1116 25T981 -7T817 -20Q392 -20 392 280Q392 358 428 483L697 1421ZM1617 1930L1652 1807L1055 1511L1025 1620L1617 1930Z" />
<glyph unicode="&#xdb;" glyph-name="Ucircumflex" horiz-adv-x="1580" d="M697 1421H867L603 500Q577 405 577 348Q577 127 866 127Q973 127 1056 156T1195 240T1285 357T1343 500L1607 1421H1777L1508 483Q1498 447 1490 423T1465 356T1429 282T1379 209T1312
137T1226 76T1116 25T981 -7T817 -20Q392 -20 392 280Q392 358 428 483L697 1421ZM1396 1924L1570 1638L1450 1550L1332 1746L1095 1551L1029 1629L1396 1924Z" />
<glyph unicode="&#xdc;" glyph-name="Udieresis" horiz-adv-x="1580" d="M697 1421H867L603 500Q577 405 577 348Q577 127 866 127Q973 127 1056 156T1195 240T1285 357T1343 500L1607 1421H1777L1508 483Q1498 447 1490 423T1465 356T1429 282T1379 209T1312
137T1226 76T1116 25T981 -7T817 -20Q392 -20 392 280Q392 358 428 483L697 1421ZM1057 1898H1242L1189 1713H1004L1057 1898ZM1506 1898H1691L1638 1713H1453L1506 1898Z" />
<glyph unicode="&#xdd;" glyph-name="Yacute" horiz-adv-x="1263" d="M507 1421H708L902 834L1440 1421H1630L932 673L739 0H569L762 673L507 1421ZM1424 1930L1459 1807L862 1511L832 1620L1424 1930Z" />
<glyph unicode="&#xde;" glyph-name="Thorn" horiz-adv-x="1326" d="M971 1008Q855 1008 746 998L598 483Q706 474 791 474H819Q858 474 885 475T957 482T1035 498T1108 529T1178 578T1235 651T1279 752Q1292 797 1292 834Q1292 880 1272 913T1221 964T1145 992T1060
1005T971 1008ZM697 1421H867L789 1147Q923 1160 1062 1160Q1156 1160 1228 1149T1360 1110T1450 1034T1482 913Q1482 858 1463 791Q1449 742 1428 694T1371 593T1293 495T1188 414T1055 358Q936 326 717 326Q636 326 555 332L460 0H290L697 1421Z" />
<glyph unicode="&#xdf;" glyph-name="germandbls" horiz-adv-x="1251" d="M996 1430Q1126 1430 1191 1359T1256 1186Q1256 1142 1244 1101Q1225 1036 1184 984T1096 899T1002 838T921 779T875 712Q871 699 871 684Q871 653 896 629T960 591T1043 557T1126 515T1190
452T1216 354Q1216 314 1201 261Q1192 228 1174 193T1122 118T1044 46T934 -5T789 -26Q645 -26 500 21L563 137Q711 106 793 106Q984 106 1027 258Q1034 282 1034 304Q1034 343 1009 372T947 416T866 451T785 489T723 544T698 630Q698 663 710 705Q727 766 768
814T856 893T949 952T1033 1015T1082 1091Q1089 1115 1089 1139Q1089 1202 1044 1242T936 1283Q917 1283 895 1279T836 1259T767 1216T703 1139T652 1022L359 0H195L488 1023Q513 1109 556 1179T652 1295T764 1372T882 1416T996 1430Z" />
<glyph unicode="&#xe0;" glyph-name="agrave" horiz-adv-x="1058" d="M780 981Q941 981 1010 928T1080 775Q1080 715 1058 640L875 0H759L747 90Q597 -20 442 -20Q325 -20 255 41T184 194Q184 224 193 256Q213 327 260 379T369 463T515 514T682 540T867 547L889
623Q905 677 905 716Q905 846 715 846Q619 846 444 803L447 921Q623 981 780 981ZM832 424H772Q716 424 675 422T576 411T480 386T406 339T360 264Q356 251 356 234Q356 182 403 146T524 109Q650 109 769 206L832 424ZM879 1539L1139 1200L1029 1095L757 1425L879
1539Z" />
<glyph unicode="&#xe1;" glyph-name="aacute" horiz-adv-x="1058" d="M1107 1549L1165 1435L703 1106L655 1210L1107 1549ZM832 424H772Q716 424 675 422T576 411T480 386T406 339T360 264Q356 251 356 234Q356 182 403 146T524 109Q650 109 769 206L832 424ZM780
981Q941 981 1010 928T1080 775Q1080 715 1058 640L875 0H759L747 90Q597 -20 442 -20Q325 -20 255 41T184 194Q184 224 193 256Q213 327 260 379T369 463T515 514T682 540T867 547L889 623Q905 677 905 716Q905 846 715 846Q619 846 444 803L447 921Q623 981 780
981Z" />
<glyph unicode="&#xe2;" glyph-name="acircumflex" horiz-adv-x="1058" d="M962 1490L1127 1189L1008 1097L896 1303L660 1098L597 1180L962 1490ZM832 424H772Q716 424 675 422T576 411T480 386T406 339T360 264Q356 251 356 234Q356 182 403 146T524 109Q650
109 769 206L832 424ZM780 981Q941 981 1010 928T1080 775Q1080 715 1058 640L875 0H759L747 90Q597 -20 442 -20Q325 -20 255 41T184 194Q184 224 193 256Q213 327 260 379T369 463T515 514T682 540T867 547L889 623Q905 677 905 716Q905 846 715 846Q619 846
444 803L447 921Q623 981 780 981Z" />
<glyph unicode="&#xe3;" glyph-name="atilde" horiz-adv-x="1057" d="M1202 1444L1305 1427L1263 1340Q1218 1248 1176 1204Q1108 1132 1022 1132Q979 1132 944 1151T887 1198T845 1253T806 1300T763 1320Q751 1320 740 1317T719 1306T701 1291T684 1272T671 1252T659
1231T649 1212T641 1196T636 1184L612 1132L508 1147L550 1235Q563 1263 569 1276T601 1326T649 1384T710 1423T791 1442Q834 1442 869 1423T926 1376T966 1321T1006 1274T1049 1254Q1059 1254 1069 1257T1088 1265T1106 1278T1121 1294T1135 1312T1147 1330T1158
1349T1166 1366T1172 1380L1177 1390L1202 1444ZM832 424H772Q716 424 675 422T576 411T480 386T406 339T360 264Q356 251 356 234Q356 182 403 146T524 109Q650 109 769 206L832 424ZM780 981Q941 981 1010 928T1080 775Q1080 715 1058 640L875 0H759L747 90Q597
-20 442 -20Q325 -20 255 41T184 194Q184 224 193 256Q213 327 260 379T369 463T515 514T682 540T867 547L889 623Q905 677 905 716Q905 846 715 846Q619 846 444 803L447 921Q623 981 780 981Z" />
<glyph unicode="&#xe4;" glyph-name="adieresis" horiz-adv-x="1062" d="M1106 1421H1291L1237 1235H1052L1106 1421ZM663 1421H848L795 1235H610L663 1421ZM836 424H776Q720 424 678 422T578 411T481 386T407 339T360 264Q356 251 356 234Q356 182 403 146T526
109Q653 109 773 206L836 424ZM782 981Q944 981 1014 927T1085 774Q1085 715 1063 640L879 0H763L751 90Q601 -20 445 -20Q327 -20 256 42T184 195Q184 224 193 256Q213 327 260 379T370 463T517 514T685 540T871 547L893 623Q909 677 909 715Q909 846 717 846Q619
846 444 803L447 921Q624 981 782 981Z" />
<glyph unicode="&#xe5;" glyph-name="aring" horiz-adv-x="1061" d="M969 1482Q915 1482 867 1440T801 1340Q795 1318 795 1296Q795 1253 819 1226T887 1198Q940 1198 988 1241T1052 1340Q1058 1362 1058 1383Q1058 1426 1034 1454T969 1482ZM994 1573Q1065 1573
1109 1527T1154 1408Q1154 1374 1144 1340Q1116 1243 1033 1175T861 1107Q790 1107 746 1153T701 1271Q701 1306 711 1340Q739 1436 822 1504T994 1573ZM835 424H775Q719 424 677 422T578 411T481 386T407 339T360 264Q356 251 356 234Q356 182 403 146T525 109Q652
109 772 206L835 424ZM782 981Q943 981 1013 927T1084 774Q1084 715 1062 640L878 0H762L750 90Q600 -20 444 -20Q326 -20 255 41T184 194Q184 224 193 256Q213 327 260 379T369 463T516 514T684 540T870 547L892 623Q908 679 908 716Q908 846 717 846Q619 846
444 803L447 921Q624 981 782 981Z" />
<glyph unicode="&#xe6;" glyph-name="ae" horiz-adv-x="1650" d="M360 268Q356 255 356 238Q356 184 406 148T529 111Q654 111 768 203L831 423Q660 423 557 403T415 351T360 268ZM1383 839Q1265 839 1170 753T1040 547H1516Q1537 621 1537 677Q1537 839 1383
839ZM447 919Q628 981 794 981Q910 981 975 936T1054 809Q1140 887 1245 934T1452 981Q1691 981 1691 727Q1691 611 1638 423H996Q984 381 984 343Q984 241 1060 177T1263 112Q1338 112 1475 147L1470 36Q1305 -20 1163 -20Q1056 -20 971 17T844 130Q687 -20 459
-20Q342 -20 264 41T185 197Q185 227 194 260Q225 370 337 446T628 540Q717 549 867 549L882 598Q896 645 896 690Q896 845 713 845Q620 845 454 803L447 919Z" />
<glyph unicode="&#xe7;" glyph-name="ccedilla" horiz-adv-x="988" d="M573 -326Q576 -314 576 -304Q576 -293 572 -284T558 -266T539 -252T509 -239T475 -226T433 -212T387 -196L483 -20Q370 -2 299 67T227 270Q227 350 256 452Q289 566 342 657T458 806T594
903T736 958T877 974Q1017 974 1133 915L1060 797Q963 833 858 833Q807 833 760 824T661 791T566 729T486 629T425 486Q401 403 401 334Q401 270 423 225T484 155T567 119T667 108Q757 108 861 140L868 28Q727 -21 604 -26L545 -136Q546 -136 559 -140T577 -146T596
-154T617 -164T637 -177T655 -194T669 -214T680 -238T683 -268Q683 -290 676 -315Q655 -386 585 -442T423 -498Q402 -498 379 -495T330 -484T289 -473T246 -458T214 -447L266 -356Q406 -403 453 -403Q498 -403 531 -381T573 -326Z" />
<glyph unicode="&#xe8;" glyph-name="egrave" horiz-adv-x="1088" d="M876 982Q1143 982 1143 746Q1143 655 1094 481L1072 405H406Q396 368 396 338Q396 243 469 177T684 111Q783 111 914 146L912 35Q738 -20 585 -20Q505 -20 443 -5T342 37T276 102T240 183T229
275Q229 358 256 450Q295 585 365 690T521 857T697 950T876 982ZM801 840Q675 840 578 747T445 529H948Q973 616 973 677Q973 840 801 840ZM897 1549L1155 1210L1047 1106L774 1435L897 1549Z" />
<glyph unicode="&#xe9;" glyph-name="eacute" horiz-adv-x="1088" d="M876 982Q1143 982 1143 746Q1143 655 1094 481L1072 405H406Q396 368 396 338Q396 243 469 177T684 111Q783 111 914 146L912 35Q738 -20 585 -20Q505 -20 443 -5T342 37T276 102T240 183T229
275Q229 358 256 450Q295 585 365 690T521 857T697 950T876 982ZM801 840Q675 840 578 747T445 529H948Q973 616 973 677Q973 840 801 840ZM1205 1549L1263 1435L801 1106L753 1210L1205 1549Z" />
<glyph unicode="&#xea;" glyph-name="ecircumflex" horiz-adv-x="1088" d="M876 982Q1143 982 1143 746Q1143 655 1094 481L1072 405H406Q396 368 396 338Q396 243 469 177T684 111Q783 111 914 146L912 35Q738 -20 585 -20Q505 -20 443 -5T342 37T276 102T240
183T229 275Q229 358 256 450Q295 585 365 690T521 857T697 950T876 982ZM801 840Q675 840 578 747T445 529H948Q973 616 973 677Q973 840 801 840ZM1047 1490L1212 1189L1093 1097L980 1303L745 1098L683 1180L1047 1490Z" />
<glyph unicode="&#xeb;" glyph-name="edieresis" horiz-adv-x="1095" d="M880 982Q1149 982 1149 746Q1149 655 1100 481L1078 405H408Q398 368 398 338Q398 243 472 177T688 111Q788 111 921 146L918 35Q742 -20 589 -20Q489 -20 417 3T305 68T247 162T229 276Q229
359 256 450Q287 559 340 648T456 799T592 902T737 963T880 982ZM804 840Q676 840 578 747T443 529H955Q979 611 979 675Q979 840 804 840ZM699 1421H884L831 1235H646L699 1421ZM1142 1421H1327L1273 1235H1088L1142 1421Z" />
<glyph unicode="&#xec;" glyph-name="igrave" horiz-adv-x="516" d="M459 988H623L340 0H176L459 988ZM534 1549L800 1225L693 1125L413 1440L534 1549Z" />
<glyph unicode="&#xed;" glyph-name="iacute" horiz-adv-x="516" d="M459 988H623L340 0H176L459 988ZM912 1549L971 1440L510 1125L460 1225L912 1549Z" />
<glyph unicode="&#xee;" glyph-name="icircumflex" horiz-adv-x="522" d="M459 988H623L340 0H176L459 988ZM691 1490L831 1204L715 1116L624 1302L422 1117L359 1195L691 1490Z" />
<glyph unicode="&#xef;" glyph-name="idieresis" horiz-adv-x="523" d="M463 988H627L344 0H180L463 988ZM392 1421H577L524 1236H339L392 1421ZM761 1421H946L893 1236H708L761 1421Z" />
<glyph unicode="&#xf0;" glyph-name="eth" horiz-adv-x="1236" d="M424 481Q406 421 406 359Q406 249 466 182T627 114Q659 114 692 121T770 150T854 206T936 299T1010 436Q1044 516 1075 629L1093 691Q944 807 810 807Q684 807 575 716T424 481ZM922 1458Q1070
1413 1168 1313L1378 1418L1405 1323L1229 1236Q1300 1125 1300 981Q1300 860 1250 687Q1226 604 1201 534T1141 390T1068 257T977 145T867 57T733 1T573 -20Q398 -20 313 64T227 286Q227 391 275 507T403 720T596 880T826 943Q967 943 1125 834Q1133 888 1133
931Q1133 1057 1064 1153L860 1050L834 1145L996 1227Q925 1291 825 1330L922 1458Z" />
<glyph unicode="&#xf1;" glyph-name="ntilde" horiz-adv-x="1164" d="M452 963H567L579 879Q796 983 950 983Q1181 983 1181 779Q1181 699 1145 575L980 0H815L982 583Q1001 651 1001 693Q1001 835 836 835Q722 835 558 761L340 0H176L452 963ZM1286 1449L1389
1432L1347 1344Q1302 1252 1260 1208Q1192 1136 1106 1136Q1063 1136 1028 1155T971 1202T929 1257T890 1304T847 1324Q835 1324 824 1321T804 1310T786 1295T769 1276T755 1257T743 1236T734 1217T726 1200T721 1189L696 1136L593 1152L635 1240Q649 1268 655
1280T686 1330T733 1388T794 1427T875 1446Q918 1446 953 1427T1010 1380T1050 1325T1089 1278T1132 1258Q1142 1258 1152 1261T1171 1270T1189 1283T1204 1298T1218 1317T1230 1335T1240 1354T1248 1370T1255 1385T1260 1395L1286 1449Z" />
<glyph unicode="&#xf2;" glyph-name="ograve" horiz-adv-x="1195" d="M964 1549L1222 1210L1114 1106L842 1435L964 1549ZM828 842Q752 842 675 805T529 687T430 498Q410 427 410 366Q410 256 469 188T636 120Q764 120 878 217T1036 469Q1056 538 1056 600Q1056
715 991 778T828 842ZM881 982Q1041 982 1136 900T1231 665Q1231 589 1206 501Q1137 262 963 121T578 -20Q419 -20 328 64T236 300Q236 381 262 471Q329 705 499 843T881 982Z" />
<glyph unicode="&#xf3;" glyph-name="oacute" horiz-adv-x="1195" d="M881 982Q1041 982 1136 900T1231 665Q1231 589 1206 501Q1137 262 963 121T578 -20Q419 -20 328 64T236 300Q236 381 262 471Q329 705 499 843T881 982ZM828 842Q752 842 675 805T529 687T430
498Q410 427 410 366Q410 256 469 188T636 120Q764 120 878 217T1036 469Q1056 538 1056 600Q1056 715 991 778T828 842ZM1137 1549L1194 1435L732 1106L684 1210L1137 1549Z" />
<glyph unicode="&#xf4;" glyph-name="ocircumflex" horiz-adv-x="1195" d="M881 982Q1041 982 1136 900T1231 665Q1231 589 1206 501Q1137 262 963 121T578 -20Q419 -20 328 64T236 300Q236 381 262 471Q329 705 499 843T881 982ZM828 842Q752 842 675 805T529
687T430 498Q410 427 410 366Q410 256 469 188T636 120Q764 120 878 217T1036 469Q1056 538 1056 600Q1056 715 991 778T828 842ZM1040 1490L1203 1189L1087 1097L974 1303L738 1098L676 1180L1040 1490Z" />
<glyph unicode="&#xf5;" glyph-name="otilde" horiz-adv-x="1198" d="M1266 1448L1369 1431Q1366 1424 1347 1384T1322 1332T1297 1285T1265 1236T1231 1198T1190 1164T1143 1145T1087 1136Q1044 1136 1009 1155T952 1202T911 1257T872 1304T829 1324Q816 1324
803 1319T781 1307T760 1287T741 1263T724 1233T709 1202T693 1168T678 1136L574 1151Q577 1158 596 1198T621 1250T646 1297T678 1346T712 1384T753 1418T800 1437T856 1446Q899 1446 934 1427T991 1380T1032 1325T1071 1278T1114 1258Q1129 1258 1142 1263T1169
1281T1191 1305T1212 1338T1230 1372T1249 1411T1266 1448ZM829 842Q752 842 675 805T529 687T430 498Q410 427 410 367Q410 256 470 188T638 120Q767 120 881 216T1039 469Q1059 538 1059 599Q1059 714 993 778T829 842ZM883 982Q1043 982 1138 899T1234 664Q1234
589 1209 501Q1140 262 966 121T580 -20Q420 -20 328 64T236 301Q236 381 262 471Q329 704 499 843T883 982Z" />
<glyph unicode="&#xf6;" glyph-name="odieresis" horiz-adv-x="1203" d="M886 982Q1048 982 1143 899T1239 664Q1239 589 1214 501Q1145 262 970 121T582 -20Q421 -20 329 64T236 301Q236 381 262 471Q329 705 500 843T886 982ZM832 842Q755 842 677 805T530 687T430
498Q410 427 410 367Q410 256 470 188T640 120Q770 120 885 217T1045 469Q1065 541 1065 598Q1065 714 998 778T832 842ZM722 1421H907L854 1235H669L722 1421ZM1165 1421H1350L1297 1235H1112L1165 1421Z" />
<glyph unicode="&#xf7;" glyph-name="divide" horiz-adv-x="1400" d="M956 1233H1151L1095 1038H900L956 1233ZM682 278H877L821 83H626L682 278ZM333 727H1483L1444 588H294L333 727Z" />
<glyph unicode="&#xf8;" glyph-name="oslash" horiz-adv-x="1194" d="M1300 970L1342 914L1201 804Q1230 741 1230 660Q1230 586 1205 499Q1137 261 964 121T580 -20Q392 -20 303 97L160 -15L119 41L266 157Q236 225 236 306Q236 385 262 473Q329 706 499 844T880
982Q1073 982 1165 863L1300 970ZM828 842Q740 842 661 798T527 684T442 530T410 366Q410 316 421 278L1017 747Q955 842 828 842ZM1046 683L449 214Q509 120 636 120Q727 120 808 166T942 284T1026 440T1057 601Q1057 644 1046 683Z" />
<glyph unicode="&#xf9;" glyph-name="ugrave" horiz-adv-x="1164" d="M1100 988H1264L980 0H865L854 83Q639 -20 482 -20Q253 -20 253 186Q253 271 290 398L459 988H623L450 386Q431 321 431 273Q431 127 595 127Q709 127 875 204L1100 988ZM913 1549L1176 1225L1069
1125L792 1440L913 1549Z" />
<glyph unicode="&#xfa;" glyph-name="uacute" horiz-adv-x="1164" d="M1100 988H1264L980 0H865L854 83Q639 -20 482 -20Q253 -20 253 186Q253 271 290 398L459 988H623L450 386Q431 321 431 273Q431 127 595 127Q709 127 875 204L1100 988ZM1195 1549L1254 1440L797
1125L747 1225L1195 1549Z" />
<glyph unicode="&#xfb;" glyph-name="ucircumflex" horiz-adv-x="1164" d="M1100 988H1264L980 0H865L854 83Q639 -20 482 -20Q253 -20 253 186Q253 271 290 398L459 988H623L450 386Q431 321 431 273Q431 127 595 127Q709 127 875 204L1100 988ZM1027 1490L1196
1204L1079 1116L963 1312L731 1117L667 1195L1027 1490Z" />
<glyph unicode="&#xfc;" glyph-name="udieresis" horiz-adv-x="1170" d="M1105 988H1269L986 0H871L860 83Q643 -20 485 -20Q253 -20 253 187Q253 267 290 398L459 988H623L450 386Q431 321 431 274Q431 127 598 127Q712 127 880 204L1105 988ZM679 1421H864L811
1235H626L679 1421ZM1120 1421H1305L1252 1235H1067L1120 1421Z" />
<glyph unicode="&#xfd;" glyph-name="yacute" horiz-adv-x="1039" d="M332 988H502L574 150L1101 988H1271L276 -531H101L444 -38L332 988ZM1200 1549L1259 1440L801 1125L751 1225L1200 1549Z" />
<glyph unicode="&#xfe;" glyph-name="thorn" horiz-adv-x="1206" d="M840 837Q580 837 471 455Q445 363 445 299Q445 117 637 117Q676 117 719 128T812 165T904 230T986 331T1046 469Q1066 536 1066 598Q1066 711 1001 774T840 837ZM909 978Q1057 978 1148 894T1239
659Q1239 584 1214 497Q1149 271 978 124T613 -23Q539 -23 476 4T373 84L197 -531H33L593 1421H757L596 860Q732 978 909 978Z" />
<glyph unicode="&#xff;" glyph-name="ydieresis" horiz-adv-x="1043" d="M332 988H502L575 150L1106 988H1276L276 -531H101L445 -38L332 988ZM627 1421H812L759 1235H574L627 1421ZM1070 1421H1255L1202 1235H1017L1070 1421Z" />
</font>
</defs>
</svg>
